HIERARCHY
ROOT Hips
{
	OFFSET 0.000000 0.000000 0.000000
	CHANNELS 6 Xposition Yposition Zposition Zrotation Yrotation Xrotation 
	JOINT LHipJoint
	{
		OFFSET 0.000000 0.000000 0.000000
		CHANNELS 3 Zrotation Yrotation Xrotation
		JOINT LeftUpLeg
		{
			OFFSET 1.363060 -1.794630 0.839290
			CHANNELS 3 Zrotation Yrotation Xrotation
			JOINT LeftLeg
			{
				OFFSET 2.448110 -6.726130 0.000000
				CHANNELS 3 Zrotation Yrotation Xrotation
				JOINT LeftFoot
				{
					OFFSET 2.562200 -7.039590 0.000000
					CHANNELS 3 Zrotation Yrotation Xrotation
					JOINT LeftToeBase
					{
						OFFSET 0.157640 -0.433110 2.322550
						CHANNELS 3 Zrotation Yrotation Xrotation
						End Site
						{
							OFFSET 0.000000 0.000000 0.000000
						}
					}
				}
			}
		}
	}
	JOINT RHipJoint
	{
		OFFSET 0.000000 0.000000 0.000000
		CHANNELS 3 Zrotation Yrotation Xrotation
		JOINT RightUpLeg
		{
			OFFSET -1.305520 -1.794630 0.839290
			CHANNELS 3 Zrotation Yrotation Xrotation
			JOINT RightLeg
			{
				OFFSET -2.542530 -6.985550 0.000000
				CHANNELS 3 Zrotation Yrotation Xrotation
				JOINT RightFoot
				{
					OFFSET -2.568260 -7.056230 0.000000
					CHANNELS 3 Zrotation Yrotation Xrotation
					JOINT RightToeBase
					{
						OFFSET -0.164730 -0.452590 2.363150
						CHANNELS 3 Zrotation Yrotation Xrotation
						End Site
						{
							OFFSET 0.000000 0.000000 0.000000
						}
					}
				}
			}
		}
	}
	JOINT LowerBack
	{
		OFFSET 0.000000 0.000000 0.000000
		CHANNELS 3 Zrotation Yrotation Xrotation
		JOINT Spine
		{
			OFFSET 0.028270 2.035590 -0.193380
			CHANNELS 3 Zrotation Yrotation Xrotation
			JOINT Spine1
			{
				OFFSET 0.056720 2.048850 -0.042750
				CHANNELS 3 Zrotation Yrotation Xrotation
				JOINT Neck
				{
					OFFSET 0.000000 0.000000 0.000000
					CHANNELS 3 Zrotation Yrotation Xrotation
					JOINT Neck1
					{
						OFFSET -0.054170 1.746240 0.172020
						CHANNELS 3 Zrotation Yrotation Xrotation
						JOINT Head
						{
							OFFSET 0.104070 1.761360 -0.123970
							CHANNELS 3 Zrotation Yrotation Xrotation
							End Site
							{
								OFFSET 0.000000 0.000000 0.000000
							}
						}
					}
				}
				JOINT LeftShoulder
				{
					OFFSET 0.000000 0.000000 0.000000
					CHANNELS 3 Zrotation Yrotation Xrotation
					JOINT LeftArm
					{
						OFFSET 3.362410 1.200890 -0.311210
						CHANNELS 3 Zrotation Yrotation Xrotation
						JOINT LeftForeArm
						{
							OFFSET 4.983000 -0.000000 -0.000000
							CHANNELS 3 Zrotation Yrotation Xrotation
							JOINT LeftHand
							{
								OFFSET 3.483560 -0.000000 -0.000000
								CHANNELS 3 Zrotation Yrotation Xrotation
								JOINT LeftFingerBase
								{
									OFFSET 0.000000 0.000000 0.000000
									CHANNELS 3 Zrotation Yrotation Xrotation
									JOINT LeftHandIndex1
									{
										OFFSET 0.715260 -0.000000 -0.000000
										CHANNELS 3 Zrotation Yrotation Xrotation
										End Site
										{
											OFFSET 0.000000 0.000000 0.000000
										}
									}
								}
								JOINT LThumb
								{
									OFFSET 0.000000 0.000000 0.000000
									CHANNELS 3 Zrotation Yrotation Xrotation
									End Site
									{
										OFFSET 0.000000 0.000000 0.000000
									}
								}
							}
						}
					}
				}
				JOINT RightShoulder
				{
					OFFSET 0.000000 0.000000 0.000000
					CHANNELS 3 Zrotation Yrotation Xrotation
					JOINT RightArm
					{
						OFFSET -3.136600 1.374050 -0.404650
						CHANNELS 3 Zrotation Yrotation Xrotation
						JOINT RightForeArm
						{
							OFFSET -5.241900 -0.000000 -0.000000
							CHANNELS 3 Zrotation Yrotation Xrotation
							JOINT RightHand
							{
								OFFSET -3.444170 -0.000000 -0.000000
								CHANNELS 3 Zrotation Yrotation Xrotation
								JOINT RightFingerBase
								{
									OFFSET 0.000000 0.000000 0.000000
									CHANNELS 3 Zrotation Yrotation Xrotation
									JOINT RightHandIndex1
									{
										OFFSET -0.622530 -0.000000 -0.000000
										CHANNELS 3 Zrotation Yrotation Xrotation
										End Site
										{
											OFFSET 0.000000 0.000000 0.000000
										}
									}
								}
								JOINT RThumb
								{
									OFFSET 0.000000 0.000000 0.000000
									CHANNELS 3 Zrotation Yrotation Xrotation
									End Site
									{
										OFFSET 0.000000 0.000000 0.000000
									}
								}
							}
						}
					}
				}
			}
		}
	}
}
MOTION
Frames: 8
Frame Time: 0.008333
-5.469748 14.450488 -0.482461 176.368970 -85.711079 -106.449682 -9.243643 -0.498094 2.166879 -12.950531 -7.796463 -111.826176 -3.532868 7.452393 57.549697 2.246750 3.262632 -19.496241 -0.739000 -0.000000 -41.239700 8.363405 0.840117 4.467924 5.446348 10.336368 -113.340143 2.530685 -7.577059 59.557215 -1.496738 -0.441090 -17.162247 0.166800 -0.000000 -59.083200 1.586025 -1.230611 -0.840918 -0.472341 -1.373777 -3.767123 -5.297336 -1.368669 -2.749618 8.907509 -7.411751 -8.023568 -2.901139 -0.159568 -1.113078 0.000000 0.000000 0.000000 6.439697 6.335933 1.976117 -70.827005 -11.188338 2.445682 -178.466419 -65.336846 179.903097 9.426037 -2.146327 -0.240000 -0.323515 0.700353 0.000000 0.000000 0.000000 0.000000 0.000000 0.000000 0.000000 6.400098 -2.154059 1.220750 71.415431 3.975975 7.565621 -179.978592 65.445321 179.852262 -15.323597 11.458749 -1.690257 0.305861 -0.819138 0.000000 0.000000 0.000000 0.000000 0.000000 0.000000 0.000000 
-5.464744 14.440021 -0.502730 176.122053 -85.648395 -106.101621 -9.260676 -0.496837 2.170096 -12.936230 -7.756697 -112.018543 -3.531765 7.487057 57.613453 2.240503 3.266159 -19.417423 -0.728100 -0.000001 -41.489400 8.351774 0.842039 4.489420 5.357644 10.459447 -113.538952 2.505979 -7.578165 59.695646 -1.510158 -0.456177 -17.256653 0.174700 0.000000 -58.895600 1.635062 -1.226256 -0.854184 -0.459671 -1.371389 -3.769042 -5.283341 -1.368896 -2.746905 8.946537 -7.405121 -8.049020 -2.908816 -0.159755 -1.122371 0.000000 0.000000 0.000000 6.321492 6.336538 1.999017 -70.660467 -11.046600 2.140023 -178.511642 -65.807586 179.903357 9.453512 -2.110404 -0.237052 -0.320284 0.694146 0.000000 0.000000 0.000000 0.000000 0.000000 0.000000 0.000000 6.630517 -2.157274 1.228539 71.300017 4.041361 7.654311 -179.990138 65.988789 179.852266 -15.464251 11.728664 -1.743760 0.307534 -0.819382 0.000000 0.000000 0.000000 0.000000 0.000000 0.000000 0.000000 
-5.460132 14.430898 -0.522875 176.071666 -85.586113 -105.957423 -9.280252 -0.497039 2.178135 -12.901558 -7.702624 -112.201704 -3.526651 7.517798 57.664515 2.240442 3.300656 -19.323846 -0.717400 -0.000000 -41.737700 8.337900 0.839765 4.509365 5.295761 10.594145 -113.711182 2.488287 -7.577167 59.808656 -1.518969 -0.454969 -17.343799 0.181700 -0.000001 -58.707400 1.689112 -1.219433 -0.872417 -0.445782 -1.366888 -3.771758 -5.269619 -1.367177 -2.742118 8.993869 -7.395254 -8.080820 -2.917458 -0.159949 -1.133374 0.000000 0.000000 0.000000 6.203116 6.352594 2.022758 -70.502390 -10.918032 1.842934 -178.561841 -66.340530 179.903521 9.489394 -2.054424 -0.232509 -0.316859 0.687186 0.000000 0.000000 0.000000 0.000000 0.000000 0.000000 0.000000 6.885062 -2.155866 1.238495 71.165819 4.107907 7.737285 179.997755 66.589422 179.852430 -15.606770 11.990894 -1.796963 0.309071 -0.818709 0.000000 0.000000 0.000000 0.000000 0.000000 0.000000 0.000000 
-5.456003 14.423235 -0.543041 176.189612 -85.523624 -105.990359 -9.301216 -0.498720 2.190461 -12.847715 -7.635400 -112.370487 -3.518015 7.543798 57.702414 2.247330 3.365919 -19.224088 -0.707900 -0.000000 -41.940099 8.322432 0.833829 4.527830 5.258201 10.738855 -113.854190 2.476978 -7.573650 59.896304 -1.523506 -0.438784 -17.424022 0.187900 0.000000 -58.526600 1.745398 -1.211212 -0.895210 -0.431456 -1.361248 -3.775076 -5.256582 -1.364478 -2.735189 9.052849 -7.380454 -8.122411 -2.927261 -0.160117 -1.147255 0.000000 0.000000 0.000000 6.087313 6.391332 2.048632 -70.352293 -10.810017 1.558015 -178.616400 -66.943621 179.903668 9.525285 -1.970044 -0.225372 -0.313051 0.679310 0.000000 0.000000 0.000000 0.000000 0.000000 0.000000 0.000000 7.167862 -2.146788 1.251182 71.011655 4.172141 7.810705 179.985648 67.247414 179.852739 -15.752637 12.232213 -1.847968 0.310508 -0.816833 0.000000 0.000000 0.000000 0.000000 0.000000 0.000000 0.000000 
-5.452258 14.417032 -0.563048 176.508710 -85.462079 -106.234302 -9.324661 -0.502986 2.207705 -12.766955 -7.551819 -112.525669 -3.505351 7.564730 57.728076 2.261362 3.460219 -19.124963 -0.700200 0.000000 -42.096501 8.303569 0.824364 4.543666 5.247194 10.896836 -113.964812 2.471852 -7.567090 59.959407 -1.524576 -0.410390 -17.498202 0.193300 0.000000 -58.347900 1.808875 -1.199953 -0.921741 -0.415424 -1.353007 -3.778463 -5.243934 -1.359287 -2.725179 9.121951 -7.368265 -8.179158 -2.937271 -0.160116 -1.165751 0.000000 0.000000 0.000000 5.972332 6.459052 2.077161 -70.210987 -10.728845 1.289550 -178.674436 -67.620054 179.903906 9.550327 -1.851148 -0.214943 -0.308624 0.670431 0.000000 0.000000 0.000000 0.000000 0.000000 0.000000 0.000000 7.472947 -2.135328 1.267382 70.839097 4.236329 7.875896 179.974057 67.961584 179.853147 -15.904968 12.439907 -1.895476 0.311943 -0.813564 0.000000 0.000000 0.000000 0.000000 0.000000 0.000000 0.000000 
-5.449386 14.412418 -0.582911 177.015731 -85.401422 -106.677629 -9.350870 -0.509035 2.231659 -12.659352 -7.452230 -112.662272 -3.489953 7.579736 57.738286 2.281722 3.576390 -19.035213 -0.694700 0.000000 -42.196700 8.281543 0.810801 4.558472 5.262736 11.067462 -114.039343 2.472987 -7.556921 59.996303 -1.522652 -0.370885 -17.567742 0.198100 0.000001 -58.172200 1.880548 -1.184568 -0.956639 -0.397861 -1.341323 -3.784598 -5.233278 -1.350900 -2.716192 9.201250 -7.348586 -8.247524 -2.948842 -0.160116 -1.187580 0.000000 0.000000 0.000000 5.853129 6.539524 2.110845 -70.072141 -10.657592 1.028805 -178.735138 -68.371565 179.904393 9.550638 -1.692998 -0.200320 -0.303267 0.660383 0.000000 0.000000 0.000000 0.000000 0.000000 0.000000 0.000000 7.803189 -2.109017 1.288808 70.646957 4.280167 7.921236 179.963702 68.726093 179.853607 -16.066533 12.605368 -1.938186 0.313410 -0.808803 0.000000 0.000000 0.000000 0.000000 0.000000 0.000000 0.000000 
-5.447188 14.409467 -0.602684 177.660454 -85.340890 -107.276031 -9.378651 -0.517307 2.260934 -12.526274 -7.337824 -112.774205 -3.472257 7.588452 57.734761 2.307388 3.707571 -18.963071 -0.692100 0.000000 -42.232900 8.256325 0.794901 4.571200 5.300347 11.245919 -114.075884 2.478524 -7.543188 60.012869 -1.518539 -0.323300 -17.634561 0.202600 0.000000 -58.006001 1.959543 -1.165695 -0.997425 -0.378851 -1.326732 -3.792149 -5.224359 -1.339755 -2.706101 9.289884 -7.327603 -8.331275 -2.960834 -0.159980 -1.213905 0.000000 0.000000 0.000000 5.730119 6.641999 2.149876 -69.935544 -10.605568 0.782601 -178.797673 -69.204884 179.905257 9.513542 -1.492589 -0.181404 -0.296760 0.649170 0.000000 0.000000 0.000000 0.000000 0.000000 0.000000 0.000000 8.152191 -2.073709 1.314819 70.440158 4.307031 7.949166 179.955212 69.539207 179.854059 -16.241266 12.723305 -1.975798 0.314974 -0.802540 0.000000 0.000000 0.000000 0.000000 0.000000 0.000000 0.000000 
-5.445899 14.407996 -0.622142 178.463054 -85.281247 -108.050816 -9.409342 -0.528056 2.296765 -12.362893 -7.205833 -112.860200 -3.452157 7.590870 57.719212 2.336862 3.845910 -18.913685 -0.692600 0.000000 -42.226700 8.226607 0.776771 4.581669 5.361918 11.433314 -114.070357 2.487945 -7.525513 60.011990 -1.513319 -0.270823 -17.701455 0.207100 0.000000 -57.843700 2.051427 -1.141032 -1.045740 -0.357070 -1.307229 -3.801727 -5.217379 -1.323851 -2.695039 9.383768 -7.308598 -8.430014 -2.972487 -0.159664 -1.244448 0.000000 0.000000 0.000000 5.595940 6.761228 2.194640 -69.797618 -10.567733 0.551280 -178.861384 -70.121859 179.906609 9.429266 -1.251778 -0.158194 -0.288972 0.636837 0.000000 0.000000 0.000000 0.000000 0.000000 0.000000 0.000000 8.510993 -2.031585 1.345688 70.222359 4.312018 7.958736 179.948959 70.397506 179.854455 -16.432309 12.791745 -2.008212 0.316690 -0.794849 0.000000 0.000000 0.000000 0.000000 0.000000 0.000000 0.000000 
